<svg xmlns="http://www.w3.org/2000/svg" width="48" height="48" viewBox="0 0 48 48"><g fill="none" stroke-width="3"><path fill="#fff" d="M24 3c6.074 0 9.586.256 11.573.51c1.618.205 2.926 1.179 3.811 2.549c1.148 1.774 2.802 4.493 4.145 7.338c1.1 2.332 1.47 4.918 1.47 7.497L45 30.5c0 3.865-.203 7.058-.425 9.4c-.253 2.654-2.398 4.619-5.06 4.754c-3.32.168-8.487.346-15.515.346s-12.195-.178-15.515-.346c-2.662-.136-4.808-2.1-5.06-4.754A100 100 0 0 1 3 30.5v-9.606c0-2.58.37-5.165 1.471-7.497c1.343-2.845 2.997-5.564 4.145-7.338c.885-1.37 2.193-2.344 3.81-2.55C14.415 3.256 17.927 3 24 3"/><path fill="#8fbffa" d="M3.425 39.974c.245 2.586 2.323 4.485 4.916 4.633c3.314.19 8.53.393 15.659.393s12.345-.203 15.659-.393c2.593-.148 4.671-2.047 4.916-4.633c.222-2.355.425-5.678.425-9.974s-.203-7.619-.425-9.974c-.245-2.586-2.323-4.485-4.916-4.633C36.345 15.203 31.129 15 24 15s-12.345.203-15.659.393c-2.593.148-4.671 2.047-4.916 4.633C3.203 22.381 3 25.704 3 30s.203 7.619.425 9.974"/><path stroke="#2859c5" stroke-linecap="round" stroke-linejoin="round" d="M24 3c6.074 0 9.586.256 11.573.51c1.618.205 2.926 1.179 3.811 2.549c1.148 1.774 2.802 4.493 4.145 7.338c1.1 2.332 1.47 4.918 1.47 7.497L45 30.5c0 3.865-.203 7.058-.425 9.4c-.253 2.654-2.398 4.619-5.06 4.754c-3.32.168-8.487.346-15.515.346s-12.195-.178-15.515-.346c-2.662-.136-4.808-2.1-5.06-4.754A100 100 0 0 1 3 30.5v-9.606c0-2.58.37-5.165 1.471-7.497c1.343-2.845 2.997-5.564 4.145-7.338c.885-1.37 2.193-2.344 3.81-2.55C14.415 3.256 17.927 3 24 3"/><path stroke="#2859c5" stroke-linecap="round" stroke-linejoin="round" d="M3.425 39.974c.245 2.586 2.323 4.485 4.916 4.633c3.314.19 8.53.393 15.659.393s12.345-.203 15.659-.393c2.593-.148 4.671-2.047 4.916-4.633c.222-2.355.425-5.678.425-9.974s-.203-7.619-.425-9.974c-.245-2.586-2.323-4.485-4.916-4.633C36.345 15.203 31.129 15 24 15s-12.345.203-15.659.393c-2.593.148-4.671 2.047-4.916 4.633C3.203 22.381 3 25.704 3 30s.203 7.619.425 9.974M24 3v12"/><path fill="#fff" d="M16.744 28.676c-.971 1.24-.296 2.726 1.277 2.818a79 79 0 0 0 2.59.104c.074 1.83.169 3.67.238 4.928c.053.98.685 1.838 1.655 1.99c.437.067.945.117 1.497.117s1.06-.05 1.498-.118c.971-.15 1.604-1.01 1.657-1.991c.068-1.259.162-3.096.235-4.926a78 78 0 0 0 2.588-.104c1.574-.092 2.25-1.578 1.278-2.818a62 62 0 0 0-2.347-2.804c-1.539-1.743-2.716-2.783-3.532-3.396c-.84-.632-1.914-.632-2.755 0c-.815.613-1.992 1.654-3.531 3.396a62 62 0 0 0-2.348 2.804"/><path stroke="#2859c5" stroke-linecap="round" stroke-linejoin="round" d="M16.744 28.676c-.971 1.24-.296 2.726 1.277 2.818a79 79 0 0 0 2.59.104c.074 1.83.169 3.67.238 4.928c.053.98.685 1.838 1.655 1.99c.437.067.945.117 1.497.117s1.06-.05 1.498-.118c.971-.15 1.604-1.01 1.657-1.991c.068-1.259.162-3.096.235-4.926a78 78 0 0 0 2.588-.104c1.574-.092 2.25-1.578 1.278-2.818a62 62 0 0 0-2.347-2.804c-1.539-1.743-2.716-2.783-3.532-3.396c-.84-.632-1.914-.632-2.755 0c-.815.613-1.992 1.654-3.531 3.396a62 62 0 0 0-2.348 2.804"/></g></svg>